<?xml version="1.0" encoding="utf-8"?>
<!-- Generator: Adobe Illustrator 22.0.1, SVG Export Plug-In . SVG Version: 6.00 Build 0)  -->
<svg version="1.1" id="레이어_1" xmlns="http://www.w3.org/2000/svg" xmlns:xlink="http://www.w3.org/1999/xlink" x="0px"
	 y="0px" viewBox="0 0 131 53" style="enable-background:new 0 0 131 53;" xml:space="preserve">
<style type="text/css">
	.st0{fill:#D71921;}
	.st1{fill:#2D2A29;}
</style>
<path class="st0" d="M111.2,0.7c-3.5,0-6.3,2.8-6.3,6.3c0,3.5,2.8,6.3,6.3,6.3c3.5,0,6.3-2.8,6.3-6.3C117.5,3.6,114.6,0.7,111.2,0.7
	 M111.2,9.8c-1.5,0-2.7-1.2-2.7-2.7c0-1.5,1.2-2.7,2.7-2.7c1.5,0,2.7,1.2,2.7,2.7C113.9,8.5,112.7,9.8,111.2,9.8"/>
<g>
	<path class="st0" d="M126.8,1.1h3.5v11.7H127l-4.6-6v6h-3.5V1.1h3.2l4.6,6V1.1z"/>
</g>
<path class="st0" d="M92.1,25.2c-2.1-2.1-3.3-4.9-3.3-7.9c0-5.5,4.1-10.2,9.5-11c1.4-0.2,2.7,0.8,2.9,2.2c0.2,1.4-0.8,2.7-2.2,2.9
	c-2.9,0.4-5.1,3-5.1,5.9c0,1.6,0.6,3.1,1.8,4.3c1.1,1.1,2.6,1.8,4.3,1.8c3,0,5.5-2.2,5.9-5.1c0.2-1.4,1.5-2.4,2.9-2.2
	c1.4,0.2,2.4,1.5,2.2,2.9c-0.8,5.4-5.6,9.5-11,9.5C97,28.5,94.2,27.3,92.1,25.2z"/>
<path class="st1" d="M35,46.7H16.3c-0.8,0-1.1-0.3-1.1-1.1V45c0-0.8,0.3-1.1,1.1-1.1H32c3,0,4-0.9,4-3.9v-4.3c0-3-1-3.9-4-3.9H11.2
	c-1.4,0-2,1.1-2,2.4c0,1.3,0.6,2.4,2,2.4H29c0.8,0,1.1,0.3,1.1,1.1v0.7c0,0.8-0.3,1.1-1.1,1.1H13.3c-3,0-4,0.9-4,3.9v4.3
	c0,3,1,3.9,4,3.9H35c1.4,0,2-1.1,2-2.4C36.9,47.9,36.3,46.7,35,46.7z"/>
<path class="st1" d="M22.4,19.3c0,1.4,0.7,2.5,2.1,2.5H30v5.6c0,1.7,1.5,2.5,3,2.5c1.5,0,3-0.8,3-2.5V10c0-1.7-1.5-2.5-3-2.5
	c-1.6,0-3,0.8-3,2.5v6.7h-5.5C23,16.7,22.4,17.9,22.4,19.3z"/>
<path class="st1" d="M13.2,22.9L13.2,22.9c0.3,0.8,1.1,1.7,3.4,3.4c1.7,1.2,3.4,2.4,4.5,3.1c1.5,0.9,3,0.2,3.7-0.8
	c0.8-1.2,0.7-2.8-0.7-3.7c-1.4-0.9-3.2-2.1-5.3-3.7c-1.9-1.4-2.6-2.8-2.6-5.3v-1.5h6.5c1.5,0,2.1-1.2,2.1-2.5s-0.7-2.5-2.1-2.5H3.2
	c-1.5,0-2.1,1.2-2.1,2.5s0.7,2.5,2.1,2.5h6.9v1.7c0,2.5-0.8,3.9-2.6,5.3c-2.2,1.6-4.1,2.9-6.1,4.2c-1.5,0.9-1.3,2.5-0.6,3.7
	c0.7,1,2.2,1.9,3.5,1c1.9-1.2,3.5-2.3,5.3-3.6C12,25,13,23.9,13.2,22.9z"/>
<path class="st1" d="M47.1,28.8c3.2-1.4,5.5-2.5,8.4-3.9c2.9-1.5,4-2.5,4.3-3.7h0c0.3,1.1,1.4,2.1,4.3,3.6c2.9,1.5,5.2,2.5,8.4,3.9
	c1.3,0.6,2.7-0.2,3.4-1.5c0.6-1.3,0.4-2.9-0.9-3.4c-2.8-1.2-5.2-2.3-8.2-3.8c-3-1.5-3.9-2.8-3.9-5.1v-0.3H73c1.5,0,2.1-1.2,2.1-2.5
	c0-1.4-0.7-2.5-2.1-2.5H46.8c-1.5,0-2.1,1.2-2.1,2.5c0,1.4,0.7,2.5,2.1,2.5h10.1v0.3c0,2.3-0.9,3.5-3.9,5.1c-3,1.5-5.4,2.6-8.2,3.8
	c-1.3,0.6-1.6,2.2-0.9,3.5C44.4,28.7,45.8,29.4,47.1,28.8z"/>
<path class="st1" d="M77.7,32.1H42c-1.5,0-2.1,1.2-2.1,2.5c0,1.4,0.7,2.5,2.1,2.5h14.8v12.3c0,1.7,1.5,2.5,3,2.5c1.6,0,3-0.8,3-2.5
	V37.2h14.8c1.5,0,2.1-1.2,2.1-2.5C79.9,33.2,79.2,32.1,77.7,32.1z"/>
<path class="st0" d="M111.2,46.4H93.6c-0.8,0-1.1-0.3-1.1-1.1v-5.1c0-1.7-1.5-2.5-3-2.5c-1.6,0-3.1,0.8-3.1,2.5v7.3c0,3,1,3.9,4,3.9
	h20.7c1.5,0,2.1-1.2,2.1-2.5C113.3,47.6,112.7,46.4,111.2,46.4z"/>
<path class="st0" d="M117.1,30.9h-14.3v-3.6c0-1.7-1.4-2.5-3-2.5c-1.5,0-3,0.8-3,2.5v3.6H82.7c-1.5,0-2.1,1.2-2.1,2.5
	c0,1.4,0.7,2.5,2.1,2.5h34.5c1.5,0,2.1-1.2,2.1-2.5C119.3,32.1,118.6,30.9,117.1,30.9z"/>
</svg>
